<svg width="20" height="20" viewBox="0 0 20 20" fill="none" xmlns="http://www.w3.org/2000/svg">
<path d="M10.0001 13.1247C8.2798 13.1247 6.8759 11.7208 6.8759 10.0005C6.8759 8.28017 8.2798 6.87626 10.0001 6.87626C11.7204 6.87626 13.1243 8.28017 13.1243 10.0005C13.1243 11.7208 11.7204 13.1247 10.0001 13.1247ZM19.3704 10.0005C19.3704 11.2942 19.3822 12.5763 19.3095 13.8677C19.2368 15.3677 18.8947 16.6989 17.7978 17.7958C16.6986 18.895 15.3697 19.2348 13.8697 19.3075C12.5759 19.3802 11.2939 19.3684 10.0025 19.3684C8.70871 19.3684 7.42668 19.3802 6.13527 19.3075C4.63527 19.2348 3.30402 18.8927 2.20714 17.7958C1.10792 16.6966 0.76808 15.3677 0.695424 13.8677C0.622767 12.5739 0.634486 11.2919 0.634486 10.0005C0.634486 8.70907 0.622767 7.4247 0.695424 6.13329C0.76808 4.63329 1.11027 3.30204 2.20714 2.20517C3.30636 1.10595 4.63527 0.766108 6.13527 0.693451C7.42902 0.620796 8.71105 0.632513 10.0025 0.632513C11.2962 0.632513 12.5782 0.620796 13.8697 0.693451C15.3697 0.766108 16.7009 1.1083 17.7978 2.20517C18.897 3.30439 19.2368 4.63329 19.3095 6.13329C19.3845 7.4247 19.3704 8.70673 19.3704 10.0005ZM10.0001 5.19345C7.33996 5.19345 5.19308 7.34032 5.19308 10.0005C5.19308 12.6606 7.33996 14.8075 10.0001 14.8075C12.6603 14.8075 14.8072 12.6606 14.8072 10.0005C14.8072 7.34032 12.6603 5.19345 10.0001 5.19345ZM15.004 13.8817C14.3829 13.8817 13.8814 14.3833 13.8814 15.0044C13.8814 15.6255 14.3829 16.127 15.004 16.127C15.6251 16.127 16.1267 15.6255 16.1267 15.0044C16.1269 14.8569 16.098 14.7108 16.0416 14.5745C15.9853 14.4383 15.9026 14.3144 15.7983 14.2101C15.694 14.1058 15.5702 14.0232 15.4339 13.9668C15.2976 13.9105 15.1515 13.8815 15.004 13.8817Z" fill="black"/>
</svg>
